<?xml version="1.0" encoding="UTF-8" standalone="no"?>
<!DOCTYPE svg PUBLIC "-//W3C//DTD SVG 1.1//EN" "http://www.w3.org/Graphics/SVG/1.1/DTD/svg11.dtd">
<svg version="1.1" xmlns="http://www.w3.org/2000/svg" xmlns:xlink="http://www.w3.org/1999/xlink" preserveAspectRatio="xMidYMid meet" viewBox="0 0 640 640" width="640" height="640"><defs><path d="M212.61 600.84C270.97 513.32 335.77 428.09 407 345.15C478.23 262.22 555.9 181.59 640 103.25C640 103.25 640 103.25 640 103.25C617.91 87.88 599.52 67.78 586.17 44.41C586.17 44.41 586.17 44.41 586.17 44.41C493.7 135.83 419.38 211.69 363.21 272.01C307.04 332.32 251.56 400.47 196.78 476.45L42.97 363.36L0 440.26C0 440.26 0 440.26 0 440.26C68.65 482.68 133.56 530.9 194 584.38C196.48 586.57 202.68 592.06 212.61 600.84Z" id="a3lSWDjGjx"></path></defs><g><g><g><use xlink:href="#a3lSWDjGjx" opacity="1" fill="#3d3232" fill-opacity="1"></use><g><use xlink:href="#a3lSWDjGjx" opacity="1" fill-opacity="0" stroke="#000000" stroke-width="0" stroke-opacity="1"></use></g></g></g></g></svg>